<?xml version="1.0" encoding="UTF-8"?>
<svg id="Layer_1" data-name="Layer 1" xmlns="http://www.w3.org/2000/svg" viewBox="0 0 180 180">
  <defs>
    <style>
      .cls-1 {
        fill: #f17322;
      }
    </style>
  </defs>
  <path class="cls-1" d="M145.3,109.87v14.08c0,2.83-2.13,4.57-4.62,5.92-.31.17-5.91,3.35-5.91.36v-44.54c0-2.83,2.04-4.76,4.6-5.99.5-.24,5.93-2.64,5.93.36v14.52c0,1.16,1.23,1.92,2.27,1.39l15.21-7.71c.7-.35,1.14-1.07,1.14-1.86v-35.13c0-2-2.18-3.24-3.9-2.21l-40.92,24.48c-1.82,1.09-2.94,3.06-2.94,5.18v72.5c0,2.25,2.44,3.67,4.39,2.54l39.28-22.55c2.53-1.45,4.09-4.14,4.09-7.06v-21.62c0-1.56-1.65-2.55-3.03-1.83l-14.75,7.77c-.51.27-.83.8-.83,1.38Z"/>
  <path class="cls-1" d="M156.57,38.79l-24.59-14.13-11.45-6.64-26.16-15.14c-2.77-1.6-5.72-1.69-8.53-.06L23.08,39.11c-.58.34-1.02,1.72-.91,2.26.11.55.7,1.55,1.37,1.94l61.81,35.75c2.88,1.67,6.07,1.94,9.08.21l61.91-35.8c1.19-.69,1.62-1.45,1.63-2.4.01-.81-.57-1.79-1.41-2.28ZM113.26,54.42l-7.24,4.42c-.83.51-1.88.5-2.7-.03l-38.71-24.66c-1.6-1.02-1.57-3.37.07-4.34l7.25-4.31c.83-.49,1.86-.48,2.67.04l38.7,24.55c1.59,1.01,1.57,3.34-.04,4.33Z"/>
  <path class="cls-1" d="M81.85,131.46c.54-.18,1.06-.4,1.54-.68.73-.42,1.37-.98,1.89-1.64.86-1.12,1.34-2.51,1.34-3.92v-31.21c0-3.9-2.08-7.51-5.46-9.46L21.18,49.87c-2.26-1.31-5.1.32-5.1,2.94v74.22c0,1.21.65,2.34,1.7,2.94l23.13,13.35c.39.22.87-.06.87-.5v-15.36c0-1.43,1.51-2.36,2.79-1.71l5.11,2.6c1.02.52,1.67,1.57,1.67,2.72v17.94c0,.21.11.4.29.5l31.33,18.08c1.62.93,3.64-.23,3.64-2.1v-1.95l-.02-.11s-10.29-25.86-10.29-25.87c-.33-.82-.6-1.74-.46-2.63.16-1.07.94-1.81,1.87-2.27.86-.42,1.84-.55,2.75-.8.46-.12.93-.25,1.39-.41ZM51.35,110.63c0,1.43-1.51,2.36-2.78,1.72l-5.73-2.88c-.65-.33-1.06-.99-1.06-1.72v-23.45c0-1.43,1.51-2.36,2.79-1.71l5.11,2.6c1.02.52,1.67,1.57,1.67,2.72v22.72Z"/>
  <path class="cls-1" d="M85.82,171.77l3.65,6.93c.25.47.92.47,1.18,0l3.71-6.93c.51-.95-.18-2.09-1.25-2.09h-6.02c-1.07,0-1.76,1.14-1.26,2.08Z"/>
  <path class="cls-1" d="M97.08,167.23c-.47.28-2.14,0-2.57-.32s-.92-1.2-.92-2.02l.02-72.43c0-3.05,1.81-5.64,4.22-7.02l7.52-4.3c.51-.29,1.85-.39,2.39-.18.61.24,1.49,1.31,1.49,2.21v72.71c0,2.07-.79,4.66-2.47,5.65l-9.66,5.69Z"/>
</svg>