<?xml version="1.0" encoding="UTF-8"?>
<svg id="Layer_1" data-name="Layer 1" xmlns="http://www.w3.org/2000/svg" viewBox="0 0 455.06 528.1">
  <defs>
    <style>
      .cls-1 {
        fill: #f17322;
      }
    </style>
  </defs>
  <path class="cls-1" d="M376.42,309.16v37.45c0,7.54-5.65,12.16-12.28,15.75-.81.44-15.72,8.91-15.72.95v-118.45c0-7.54,5.44-12.66,12.23-15.92,1.34-.65,15.77-7.01,15.77.95v38.61c0,3.1,3.27,5.11,6.03,3.71l40.44-20.5c1.86-.94,3.03-2.85,3.03-4.94v-93.43c0-5.32-5.8-8.61-10.37-5.88l-108.82,65.1c-4.85,2.9-7.81,8.13-7.81,13.78v192.82c0,6,6.48,9.75,11.69,6.77l104.46-59.97c6.72-3.86,10.87-11.02,10.87-18.77v-57.51c0-4.14-4.4-6.79-8.06-4.86l-39.23,20.67c-1.36.72-2.22,2.13-2.22,3.68Z"/>
  <path class="cls-1" d="M406.38,120.11l-65.39-37.59-30.45-17.65-69.57-40.27c-7.37-4.27-15.21-4.5-22.7-.17L51.37,120.98c-1.54.89-2.72,4.56-2.41,6.02.3,1.46,1.85,4.12,3.65,5.16l164.4,95.07c7.66,4.43,16.15,5.17,24.14.55l164.65-95.22c3.16-1.83,4.3-3.84,4.34-6.39.03-2.16-1.52-4.77-3.76-6.06ZM291.21,161.7l-19.25,11.76c-2.21,1.35-4.99,1.32-7.18-.07l-102.96-65.58c-4.26-2.71-4.16-8.97.18-11.55l19.29-11.47c2.2-1.31,4.94-1.27,7.1.1l102.92,65.3c4.24,2.69,4.19,8.9-.1,11.51Z"/>
  <path class="cls-1" d="M207.66,366.59c1.43-.48,2.83-1.05,4.11-1.8,1.93-1.13,3.64-2.6,5.01-4.37,2.29-2.97,3.56-6.67,3.56-10.42v-83.01c0-10.38-5.53-19.96-14.51-25.16L46.32,149.58c-6.02-3.48-13.56.86-13.56,7.82v197.39c0,3.23,1.72,6.21,4.52,7.82l61.53,35.51c1.03.59,2.31-.15,2.31-1.33v-40.86c0-3.81,4.03-6.28,7.43-4.55l13.59,6.92c2.72,1.38,4.43,4.18,4.43,7.23v47.72c0,.55.29,1.06.77,1.33l83.33,48.09c4.31,2.48,9.69-.62,9.69-5.59v-5.18l-.05-.28s-27.36-68.78-27.37-68.81c-.87-2.19-1.58-4.63-1.24-7,.42-2.84,2.49-4.82,4.97-6.03,2.28-1.11,4.89-1.46,7.33-2.12,1.22-.33,2.46-.67,3.69-1.08ZM126.56,311.19c0,3.8-4,6.27-7.4,4.56l-15.23-7.65c-1.72-.87-2.81-2.63-2.81-4.56v-62.37c0-3.81,4.03-6.28,7.43-4.55l13.59,6.92c2.72,1.38,4.43,4.18,4.43,7.23v60.42Z"/>
  <path class="cls-1" d="M218.24,473.79l9.7,18.44c.66,1.26,2.46,1.26,3.13.01l9.87-18.43c1.35-2.52-.48-5.56-3.33-5.56h-16.02c-2.84,0-4.67,3.02-3.35,5.54Z"/>
  <path class="cls-1" d="M248.17,461.71c-1.25.74-5.69.02-6.83-.85s-2.45-3.18-2.45-5.36l.05-192.62c0-8.11,4.82-15.01,11.22-18.67l19.99-11.43c1.36-.78,4.92-1.03,6.35-.47,1.61.63,3.95,3.48,3.95,5.88v193.37c-.01,5.5-2.1,12.4-6.57,15.03l-25.7,15.12Z"/>
</svg>