<?xml version="1.0" encoding="UTF-8"?>
<svg id="Layer_1" data-name="Layer 1" xmlns="http://www.w3.org/2000/svg" viewBox="0 0 1401.65 695.16">
  <defs>
    <style>
      .cls-1 {
        fill: #606161;
      }

      .cls-2 {
        fill: #fff;
      }

      .cls-3 {
        fill: #f37121;
      }
    </style>
  </defs>
  <rect class="cls-1" x="25.71" y="342.93" width="201.68" height="84.83" rx="11.46" ry="11.46"/>
  <rect class="cls-2" x="0" width="1401.65" height="695.16"/>
  <g>
    <rect x="797.83" y="185.88" width="91.78" height="321.07" rx="13" ry="13"/>
    <path d="M406.58,185.88H118.6c-9.14,0-16.55,7.41-16.55,16.55v287.98c0,9.14,7.41,16.55,16.55,16.55h287.98c9.14,0,16.55-7.41,16.55-16.55V202.43c0-9.14-7.41-16.55-16.55-16.55ZM305,435.81c0,6.33-5.13,11.46-11.46,11.46h-61.92c-6.33,0-11.46-5.13-11.46-11.46v-178.76c0-6.33,5.13-11.46,11.46-11.46h61.92c6.33,0,11.46,5.13,11.46,11.46v178.76Z"/>
    <path d="M1119.38,412.42v23.39c0,6.33-5.13,11.46-11.46,11.46h-61.92c-6.33,0-11.46-5.13-11.46-11.46v-178.76c0-6.33,5.13-11.46,11.46-11.46h61.92c6.33,0,11.46,5.13,11.46,11.46v23.39c0,13.02,10.56,23.58,23.58,23.58h94.54v-101.58c0-9.14-7.41-16.55-16.55-16.55h-287.98c-9.14,0-16.55,7.41-16.55,16.55v287.98c0,9.14,7.41,16.55,16.55,16.55h287.98c9.14,0,16.55-7.41,16.55-16.55v-101.56h-94.54c-13.02,0-23.58,10.56-23.58,23.58Z"/>
    <path d="M748.46,375.9c2.9-1.07,5.44-2.29,7.68-3.61,9.36-5.55,14.88-15.81,14.88-26.69,0-27.11,0-108.08,0-143.18,0-9.14-7.41-16.54-16.55-16.54h-287.98c-9.14,0-16.55,7.41-16.55,16.55v287.98c0,9.14,7.41,16.55,16.55,16.55h101.57v-71.36c0-6.33,5.13-11.46,11.46-11.46h61.92c6.33,0,11.46,5.13,11.46,11.46v71.36h101.57c.38,0,.76-.01,1.13-.04,10.64-.72,17.22-12.02,13.24-21.91l-32.85-81.67c-4.48-11.13,1.2-23.28,12.46-27.43ZM652.9,334.97c0,6.33-5.13,11.46-11.46,11.46h-61.92c-6.33,0-11.46-5.13-11.46-11.46v-77.93c0-6.33,5.13-11.46,11.46-11.46h61.92c6.33,0,11.46,5.13,11.46,11.46v77.93Z"/>
  </g>
  <g>
    <path class="cls-3" d="M1177.61,322.48h-45.04c-1.43,0-2.59,1.16-2.59,2.59v4.56c0,.22.18.41.4.41,0,0,0,0,0,0h27.96c.99,0,1.79.8,1.79,1.79v9.68c0,.99-.8,1.79-1.79,1.79h-27.96c-.22,0-.41.18-.41.41v7.57c0,.22.18.4.4.4h0s27.96,0,27.96,0c.99,0,1.79.8,1.79,1.79v9.68c0,.99-.8,1.79-1.79,1.79h-27.96c-.21,0-.39.17-.39.39v4.77c-.01,1.43,1.14,2.59,2.57,2.59h45.04c1.43,0,2.59-1.16,2.59-2.59v-45.04c0-1.43-1.16-2.59-2.59-2.59Z"/>
    <path class="cls-3" d="M1223.75,322.48h-33.87c-1.43,0-2.59,1.16-2.59,2.59v45.04c0,1.43,1.16,2.59,2.59,2.59h33.87c7.59,0,13.75-6.16,13.75-13.75v-22.71c0-7.59-6.16-13.75-13.75-13.75ZM1223.37,357.74c0,3.98-3.23,7.2-7.2,7.2h-6.41c-1.09,0-1.97-.88-1.97-1.97v-30.98c0-1.09.88-1.97,1.97-1.97h6.41c3.98,0,7.2,3.23,7.2,7.2v20.5Z"/>
  </g>
</svg>